STARTFONT 2.1
COMMENT Exported by Fony v1.4.7
FONT LED7SEG
SIZE 8 96 96
FONTBOUNDINGBOX 9 7 0 0
STARTPROPERTIES 6
COPYRIGHT "Created with Fony 1.4.7"
RESOLUTION_X 96
RESOLUTION_Y 96
FONT_ASCENT 8
FONT_DESCENT 0
DEFAULT_CHAR 0
ENDPROPERTIES
CHARS 12
STARTCHAR 048
ENCODING 48
SWIDTH 648 0
DWIDTH 9 0
BBX 8 3 1 0
BITMAP
3F
7F
FF
ENDCHAR
STARTCHAR 049
ENCODING 49
SWIDTH 648 0
DWIDTH 9 0
BBX 8 3 0 0
BITMAP
FC
FE
FF
ENDCHAR
STARTCHAR 050
ENCODING 50
SWIDTH 648 0
DWIDTH 9 0
BBX 8 3 1 5
BITMAP
FF
7F
3F
ENDCHAR
STARTCHAR 051
ENCODING 51
SWIDTH 648 0
DWIDTH 9 0
BBX 8 3 0 5
BITMAP
FF
FE
FC
ENDCHAR
STARTCHAR 052
ENCODING 52
SWIDTH 648 0
DWIDTH 9 0
BBX 3 7 6 0
BITMAP
20
60
E0
E0
E0
E0
E0
ENDCHAR
STARTCHAR 053
ENCODING 53
SWIDTH 648 0
DWIDTH 9 0
BBX 3 7 6 1
BITMAP
E0
E0
E0
E0
E0
60
20
ENDCHAR
STARTCHAR 054
ENCODING 54
SWIDTH 648 0
DWIDTH 9 0
BBX 3 7 0 0
BITMAP
80
C0
E0
E0
E0
E0
E0
ENDCHAR
STARTCHAR 055
ENCODING 55
SWIDTH 648 0
DWIDTH 9 0
BBX 3 7 0 1
BITMAP
E0
E0
E0
E0
E0
C0
80
ENDCHAR
STARTCHAR 056
ENCODING 56
SWIDTH 648 0
DWIDTH 9 0
BBX 9 8 0 0
BITMAP
E000
E000
E000
E000
E000
DF80
BF80
7F80
ENDCHAR
STARTCHAR 057
ENCODING 57
SWIDTH 648 0
DWIDTH 9 0
BBX 9 8 0 0
BITMAP
0380
0380
0380
0380
0380
FD80
FE80
FF00
ENDCHAR
STARTCHAR 058
ENCODING 58
SWIDTH 648 0
DWIDTH 9 0
BBX 9 8 0 0
BITMAP
7F80
BF80
DF80
E000
E000
E000
E000
E000
ENDCHAR
STARTCHAR 059
ENCODING 59
SWIDTH 648 0
DWIDTH 9 0
BBX 9 8 0 0
BITMAP
FF00
FE80
FD80
0380
0380
0380
0380
0380
ENDCHAR
ENDFONT
